#!OML:ASF H:\Terrain\Patient Classification 1\Walking\steve\steve.ASF
:FULLY-SPECIFIED
:DEGREES
273
root 7.36481 16.0014 -2.66945 5.2488 -1.78026 4.77564
lowerback -1.06868 0.0527186 -4.62507
upperback -1.35642 0.0877063 -0.668283
thorax -0.80036 0.0817358 1.90585
lowerneck -10.5723 0.130384 -1.32277
upperneck 17.7986 0.29869 0.636265
head 7.19043 0.111282 0.453727
rclavicle 2.1065e-014 1.05356e-014
rhumerus -65.6936 -25.0332 -55.7511
rradius 20.2235
rwrist 14.3295
rhand -13.1503 -35.0466
rfingers 7.12502
rthumb 12.9483 -64.6249
lclavicle 2.1065e-014 1.05356e-014
lhumerus -3.50638 -6.41978 83.7276
lradius 38.8061
lwrist 22.42
lhand -23.6727 -14.1223
lfingers 7.12502
lthumb 2.79344 15.8391
rfemur -42.936 2.598 18.7846
rtibia 26.5192
rfoot -11.6632 9.14536
rtoes -2.18198
lfemur 15.4362 0.751462 -29.8804
ltibia 5.40694e-014
lfoot -13.0598 -2.94584
ltoes -1.6265
274
root 7.36899 15.9823 -2.49663 5.27132 -1.74033 4.63705
lowerback -0.683375 -0.0596662 -4.57957
upperback -1.71682 -0.0927392 -0.377601
thorax -1.375 0.0108234 2.1789
lowerneck -10.3076 0.230564 -1.34411
upperneck 17.8881 0.488895 0.356822
head 7.17158 0.175498 0.383755
rclavicle 7.94517e-015 2.10712e-014
rhumerus -66.1159 -24.3068 -55.3477
rradius 20.3954
rwrist 13.9681
rhand -14.3062 -34.1882
rfingers 7.12502
rthumb 11.8339 -63.8338
lclavicle 7.94517e-015 2.10712e-014
lhumerus -4.27374 -5.54846 84.0479
lradius 39.308
lwrist 21.667
lhand -24.5613 -14.8224
lfingers 7.12502
lthumb 1.93527 15.1486
rfemur -42.7034 3.05203 18.6582
rtibia 26.5058
rfoot -11.7342 8.95227
rtoes 1.78913
lfemur 16.0208 0.745703 -29.7488
ltibia -3.18055e-014
lfoot -12.6572 -2.91643
ltoes -2.43139
275
root 7.36625 15.9773 -2.34442 5.28388 -1.26511 4.56694
lowerback -0.172865 -0.288493 -4.51425
upperback -1.96744 -0.429721 -0.16717
thorax -1.89479 -0.141434 2.36426
lowerneck -10.1172 0.29272 -1.32606
upperneck 17.8133 0.624038 0.0571232
head 7.11379 0.215311 0.295219
rclavicle -1.2275e-014 -1.23246e-014
rhumerus -66.4312 -24.1163 -54.7702
rradius 20.478
rwrist 14.0798
rhand -14.7287 -33.5481
rfingers 7.12502
rthumb 11.4264 -63.2167
lclavicle -1.2275e-014 -1.23246e-014
lhumerus -4.94699 -5.29308 84.1742
lradius 39.9827
lwrist 21.6077
lhand -24.6865 -15.1313
lfingers 7.12502
lthumb 1.81437 14.8407
rfemur -42.5135 3.24706 18.3934
rtibia 26.8001
rfoot -11.8774 8.51605
rtoes 4.35965
lfemur 16.5391 0.295327 -29.5752
ltibia -6.36111e-015
lfoot -12.1814 -3.04203
ltoes -1.95492
276
root 7.36061 15.95 -2.20124 5.27062 -0.603343 4.74978
lowerback 0.315859 -0.536945 -4.5887
upperback -2.0874 -0.79113 -0.130233
thorax -2.26553 -0.310013 2.45518
lowerneck -10.2151 0.329299 -1.22999
upperneck 17.8961 0.698656 -0.152159
head 7.15878 0.238328 0.21869
rclavicle 2.5755e-014 7.95139e-015
rhumerus -66.7742 -24.637 -53.8455
rradius 20.5108
rwrist 14.8105
rhand -13.3875 -33.865
rfingers 7.12502
rthumb 12.7196 -63.4576
lclavicle 2.5755e-014 7.95139e-015
lhumerus -5.23759 -5.111 84.198
lradius 40.3081
lwrist 21.7189
lhand -24.4659 -15.2025
lfingers 7.12502
lthumb 2.02739 14.7676
rfemur -42.3469 3.33433 17.8272
rtibia 27.325
rfoot -12.3186 7.80006
rtoes 1.99921
lfemur 17.2631 -0.343825 -29.7139
ltibia -3.18055e-015
lfoot -11.8648 -3.15899
ltoes -1.10892
277
root 7.35844 15.9135 -2.03656 5.28378 -0.306903 4.79388
lowerback 0.203456 -0.615356 -4.37519
upperback -1.94879 -0.883391 -0.163462
thorax -2.055 -0.367177 2.30072
lowerneck -10.5464 0.314128 -1.27534
upperneck 17.8919 0.674055 -0.0607863
head 7.21584 0.23131 0.254478
rclavicle 2.74571e-015 -1.98785e-015
rhumerus -66.8716 -25.5521 -53.004
rradius 20.3236
rwrist 15.6057
rhand -13.3969 -34.1549
rfingers 7.12502
rthumb 12.7106 -63.7481
lclavicle 2.74571e-015 -1.98785e-015
lhumerus -4.95244 -4.76589 84.1811
lradius 40.3666
lwrist 21.5901
lhand -24.1375 -15.1447
lfingers 7.12502
lthumb 2.34461 14.8221
rfemur -42.1736 3.68452 17.4435
rtibia 28.0674
rfoot -12.9357 7.30686
rtoes 0.14872
lfemur 18.027 -0.612672 -29.7624
ltibia 3.81667e-014
lfoot -11.5373 -3.29529
ltoes -0.107471
278
root 7.35191 15.8888 -1.86973 5.47061 -0.124538 4.88081
lowerback -0.0976793 -0.685396 -4.30839
upperback -1.88579 -0.957961 -0.112445
thorax -1.81533 -0.411234 2.31232
lowerneck -10.7708 0.2674 -1.38658
upperneck 17.7847 0.658101 -0.189934
head 7.22137 0.20506 0.229859
rclavicle 3.60297e-016 -1.11319e-014
rhumerus -66.6684 -25.7742 -52.761
rradius 20.1434
rwrist 15.603
rhand -13.9425 -34.7915
rfingers 7.12502
rthumb 12.1846 -64.4167
lclavicle 3.60297e-016 -1.11319e-014
lhumerus -5.00558 -4.82404 84.1411
lradius 40.7926
lwrist 22.0286
lhand -23.865 -14.7741
lfingers 7.12502
lthumb 2.6077 15.1897
rfemur -42.2755 4.15772 17.0039
rtibia 29.0788
rfoot -13.1289 6.8525
rtoes -1.05685
lfemur 18.4534 -0.813423 -29.8083
ltibia -4.13472e-014
lfoot -11.0382 -3.39101
ltoes 0.000472098
279
root 7.34431 15.8697 -1.70419 5.60473 0.00101605 5.07419
lowerback 0.0047616 -0.765714 -4.4748
upperback -2.03674 -1.07489 -0.0321276
thorax -2.01632 -0.459356 2.49265
lowerneck -10.6306 0.276207 -1.31107
upperneck 17.6356 0.720544 -0.550181
head 7.14982 0.209131 0.105681
rclavicle -2.85753e-016 -3.97569e-016
rhumerus -66.5339 -25.3412 -52.8598
rradius 20.1778
rwrist 15.1805
rhand -13.0448 -35.5203
rfingers 7.12502
rthumb 13.05 -65.0921
lclavicle -2.85753e-016 -3.97569e-016
lhumerus -5.61564 -4.59337 84.248
lradius 41.2986
lwrist 22.3895
lhand -23.8909 -14.7011
lfingers 7.12502
lthumb 2.58275 15.263
rfemur -42.3361 4.27107 16.7629
rtibia 30.0855
rfoot -12.3398 6.11533
rtoes -2.08831
lfemur 18.9036 -0.958589 -29.9729
ltibia -2.8625e-014
lfoot -10.4826 -3.2004
ltoes -1.81091
